<mxfile host="65bd71144e">
    <diagram name="Page-1" id="pmKt_e2EGxdqwPdzqbAh">
        <mxGraphModel dx="1148" dy="386" grid="1" gridSize="10" guides="1" tooltips="1" connect="1" arrows="1" fold="1" page="1" pageScale="1" pageWidth="850" pageHeight="1100" math="0" shadow="0">
            <root>
                <mxCell id="0"/>
                <mxCell id="1" parent="0"/>
                <mxCell id="SUJ-ti21fhwwI3aphZOd-17" style="edgeStyle=orthogonalEdgeStyle;rounded=0;orthogonalLoop=1;jettySize=auto;html=1;exitX=1;exitY=0.5;exitDx=0;exitDy=0;entryX=0;entryY=0.5;entryDx=0;entryDy=0;" parent="1" source="SUJ-ti21fhwwI3aphZOd-1" target="SUJ-ti21fhwwI3aphZOd-2" edge="1">
                    <mxGeometry relative="1" as="geometry"/>
                </mxCell>
                <mxCell id="SUJ-ti21fhwwI3aphZOd-1" value="" style="rounded=1;whiteSpace=wrap;html=1;" parent="1" vertex="1">
                    <mxGeometry x="-80" y="110" width="460" height="400" as="geometry"/>
                </mxCell>
                <mxCell id="SUJ-ti21fhwwI3aphZOd-16" style="edgeStyle=orthogonalEdgeStyle;rounded=0;orthogonalLoop=1;jettySize=auto;html=1;exitX=0;exitY=0.5;exitDx=0;exitDy=0;entryX=1;entryY=0.5;entryDx=0;entryDy=0;" parent="1" source="SUJ-ti21fhwwI3aphZOd-2" target="SUJ-ti21fhwwI3aphZOd-1" edge="1">
                    <mxGeometry relative="1" as="geometry"/>
                </mxCell>
                <mxCell id="SUJ-ti21fhwwI3aphZOd-2" value="" style="rounded=1;whiteSpace=wrap;html=1;" parent="1" vertex="1">
                    <mxGeometry x="580" y="110" width="460" height="400" as="geometry"/>
                </mxCell>
                <mxCell id="SUJ-ti21fhwwI3aphZOd-3" value="Client" style="text;html=1;strokeColor=none;fillColor=none;align=center;verticalAlign=middle;whiteSpace=wrap;rounded=0;" parent="1" vertex="1">
                    <mxGeometry x="120" y="510" width="60" height="30" as="geometry"/>
                </mxCell>
                <mxCell id="SUJ-ti21fhwwI3aphZOd-4" value="Server" style="text;html=1;strokeColor=none;fillColor=none;align=center;verticalAlign=middle;whiteSpace=wrap;rounded=0;" parent="1" vertex="1">
                    <mxGeometry x="780" y="510" width="60" height="30" as="geometry"/>
                </mxCell>
                <mxCell id="SUJ-ti21fhwwI3aphZOd-12" style="edgeStyle=orthogonalEdgeStyle;rounded=0;orthogonalLoop=1;jettySize=auto;html=1;exitX=1;exitY=0.5;exitDx=0;exitDy=0;entryX=0;entryY=0.5;entryDx=0;entryDy=0;" parent="1" source="SUJ-ti21fhwwI3aphZOd-5" target="SUJ-ti21fhwwI3aphZOd-8" edge="1">
                    <mxGeometry relative="1" as="geometry"/>
                </mxCell>
                <mxCell id="SUJ-ti21fhwwI3aphZOd-13" style="edgeStyle=orthogonalEdgeStyle;rounded=0;orthogonalLoop=1;jettySize=auto;html=1;exitX=1;exitY=0.5;exitDx=0;exitDy=0;entryX=0;entryY=0.5;entryDx=0;entryDy=0;" parent="1" source="SUJ-ti21fhwwI3aphZOd-5" target="SUJ-ti21fhwwI3aphZOd-6" edge="1">
                    <mxGeometry relative="1" as="geometry"/>
                </mxCell>
                <mxCell id="SUJ-ti21fhwwI3aphZOd-14" style="edgeStyle=orthogonalEdgeStyle;rounded=0;orthogonalLoop=1;jettySize=auto;html=1;exitX=0.5;exitY=1;exitDx=0;exitDy=0;" parent="1" source="SUJ-ti21fhwwI3aphZOd-5" target="SUJ-ti21fhwwI3aphZOd-7" edge="1">
                    <mxGeometry relative="1" as="geometry"/>
                </mxCell>
                <mxCell id="SUJ-ti21fhwwI3aphZOd-5" value="Server Logic" style="rounded=1;whiteSpace=wrap;html=1;" parent="1" vertex="1">
                    <mxGeometry x="620" y="270" width="120" height="60" as="geometry"/>
                </mxCell>
                <mxCell id="SUJ-ti21fhwwI3aphZOd-10" style="edgeStyle=orthogonalEdgeStyle;rounded=0;orthogonalLoop=1;jettySize=auto;html=1;exitX=0;exitY=0.5;exitDx=0;exitDy=0;entryX=1;entryY=0.5;entryDx=0;entryDy=0;" parent="1" source="SUJ-ti21fhwwI3aphZOd-6" target="SUJ-ti21fhwwI3aphZOd-5" edge="1">
                    <mxGeometry relative="1" as="geometry"/>
                </mxCell>
                <mxCell id="SUJ-ti21fhwwI3aphZOd-6" value="Calculator API&lt;br&gt;(Microservice 1)" style="rounded=1;whiteSpace=wrap;html=1;" parent="1" vertex="1">
                    <mxGeometry x="840" y="150" width="120" height="60" as="geometry"/>
                </mxCell>
                <mxCell id="SUJ-ti21fhwwI3aphZOd-15" style="edgeStyle=orthogonalEdgeStyle;rounded=0;orthogonalLoop=1;jettySize=auto;html=1;exitX=0.5;exitY=0;exitDx=0;exitDy=0;exitPerimeter=0;entryX=0.5;entryY=1;entryDx=0;entryDy=0;" parent="1" source="SUJ-ti21fhwwI3aphZOd-7" target="SUJ-ti21fhwwI3aphZOd-5" edge="1">
                    <mxGeometry relative="1" as="geometry"/>
                </mxCell>
                <mxCell id="SUJ-ti21fhwwI3aphZOd-7" value="Registered&lt;br&gt;Users" style="shape=cylinder3;whiteSpace=wrap;html=1;boundedLbl=1;backgroundOutline=1;size=15;" parent="1" vertex="1">
                    <mxGeometry x="635" y="380" width="90" height="80" as="geometry"/>
                </mxCell>
                <mxCell id="SUJ-ti21fhwwI3aphZOd-11" style="edgeStyle=orthogonalEdgeStyle;rounded=0;orthogonalLoop=1;jettySize=auto;html=1;exitX=0;exitY=0.5;exitDx=0;exitDy=0;entryX=1;entryY=0.5;entryDx=0;entryDy=0;" parent="1" source="SUJ-ti21fhwwI3aphZOd-8" target="SUJ-ti21fhwwI3aphZOd-5" edge="1">
                    <mxGeometry relative="1" as="geometry"/>
                </mxCell>
                <mxCell id="SUJ-ti21fhwwI3aphZOd-8" value="Random Img API&lt;br&gt;(Microservice 2)" style="rounded=1;whiteSpace=wrap;html=1;" parent="1" vertex="1">
                    <mxGeometry x="840" y="250" width="120" height="60" as="geometry"/>
                </mxCell>
                <mxCell id="SUJ-ti21fhwwI3aphZOd-19" value="1 - There must be&amp;nbsp;&lt;br&gt;a sign in/up&amp;nbsp;page." style="rounded=1;whiteSpace=wrap;html=1;" parent="1" vertex="1">
                    <mxGeometry x="90" y="180" width="120" height="60" as="geometry"/>
                </mxCell>
                <mxCell id="SUJ-ti21fhwwI3aphZOd-20" value="2- There must be a proper control panel for users." style="rounded=1;whiteSpace=wrap;html=1;" parent="1" vertex="1">
                    <mxGeometry x="90" y="280" width="120" height="60" as="geometry"/>
                </mxCell>
                <mxCell id="SUJ-ti21fhwwI3aphZOd-21" value="3 - Use cockies to save logged in users!" style="rounded=1;whiteSpace=wrap;html=1;" parent="1" vertex="1">
                    <mxGeometry x="90" y="380" width="120" height="60" as="geometry"/>
                </mxCell>
                <mxCell id="SUJ-ti21fhwwI3aphZOd-22" style="edgeStyle=orthogonalEdgeStyle;rounded=0;orthogonalLoop=1;jettySize=auto;html=1;exitX=0.5;exitY=1;exitDx=0;exitDy=0;entryX=0.75;entryY=1;entryDx=0;entryDy=0;" parent="1" source="SUJ-ti21fhwwI3aphZOd-21" target="SUJ-ti21fhwwI3aphZOd-21" edge="1">
                    <mxGeometry relative="1" as="geometry"/>
                </mxCell>
            </root>
        </mxGraphModel>
    </diagram>
</mxfile>